<svg xmlns="http://www.w3.org/2000/svg" xmlns:xlink="http://www.w3.org/1999/xlink" width="512" height="512" viewBox="0 0 512 512">
  <defs>
    <clipPath id="clip-edit">
      <rect width="512" height="512"/>
    </clipPath>
  </defs>
  <g id="edit" clip-path="url(#clip-edit)">
    <g id="사각형_1" data-name="사각형 1" transform="translate(388.926 -25.042) rotate(45)" fill="none" stroke="#999" stroke-width="40">
      <path d="M61,0h88a61,61,0,0,1,61,61V443a19,19,0,0,1-19,19H19A19,19,0,0,1,0,443V61A61,61,0,0,1,61,0Z" stroke="none"/>
      <path d="M61,20h88a41,41,0,0,1,41,41V441a1,1,0,0,1-1,1H21a1,1,0,0,1-1-1V61A41,41,0,0,1,61,20Z" fill="none"/>
    </g>
    <line id="선_2" data-name="선 2" x1="69" y2="188" transform="translate(20.5 303.5)" fill="none" stroke="#999" stroke-linecap="round" stroke-width="40"/>
    <line id="선_3" data-name="선 3" x1="188" y2="68" transform="translate(20.5 423.5)" fill="none" stroke="#999" stroke-linecap="round" stroke-width="40"/>
  </g>
</svg>
